<svg xmlns="http://www.w3.org/2000/svg" xmlns:xlink="http://www.w3.org/1999/xlink" version="1.0" id="Capa_1" x="0px" y="0px" width="100px" height="100px" viewBox="0 0 100.0 100.0" enable-background="new 0 0 100 100" xml:space="preserve">
  <g>
    <path style='fill:#e52d27' d="M94.65,71.6L94.34,27.884l-0.401-0.546L49.988,2h-0.403h-0.403L5.194,27.338l-0.401,0.63l0.287,43.68l0.262,0.906   L49.386,98h0.806l44.173-25.474L94.65,71.6z M92.539,28.356l0.227,41.803L50,45.646V3.807L92.539,28.356z M49,3.807v41.859   L17.351,64.054L6.734,70.14L6.542,28.354L49,3.807z M49.79,96.156L7.463,71.607l0.617-0.359l41.61-24.133l38.026,21.881l4.513,2.61   L49.79,96.156z"/>
    <g>
      <path style='fill:#e52d27' d="M21.755,48.164L21,47.702V31.48l0.211-0.463l16.035-9.455L38,22.024v16.222l-0.21,0.463L21.755,48.164z M22,31.787v14.978    l15-8.825V22.962L22,31.787z"/>
    </g>
    <g>
      <path style='fill:#e52d27' d="M81.5,64.84c-0.296,0-0.5-0.24-0.5-0.537V32.094L61,20.802v31.167c0,0.296-0.204,0.536-0.5,0.536    c-0.297,0-0.5-0.24-0.5-0.536V19.88l0.822-0.466l20.91,11.901L82,31.781v32.521C82,64.6,81.797,64.84,81.5,64.84z"/>
    </g>
    <g>
      <path style='fill:#e52d27' d="M79.059,80.311c-0.045,0-0.091-0.012-0.134-0.036L34.813,54.806c-0.128-0.073-0.172-0.237-0.098-0.366    c0.074-0.128,0.238-0.171,0.366-0.098l44.112,25.469c0.128,0.073,0.172,0.237,0.098,0.366    C79.242,80.263,79.151,80.311,79.059,80.311z"/>
    </g>
    <g>
      <path style='fill:#e52d27' d="M64.485,88.983c-0.046,0-0.092-0.012-0.135-0.036L20.239,63.479c-0.128-0.073-0.172-0.237-0.098-0.366    c0.074-0.128,0.238-0.171,0.366-0.098l44.112,25.469c0.128,0.073,0.172,0.237,0.098,0.366    C64.668,88.936,64.577,88.983,64.485,88.983z"/>
    </g>
    <g>
      <path style='fill:#e52d27' d="M20.708,80.313c-0.092,0-0.183-0.048-0.232-0.134c-0.074-0.127-0.031-0.292,0.098-0.366l43.822-25.476    c0.127-0.074,0.291-0.032,0.366,0.098c0.074,0.127,0.031,0.292-0.098,0.366L20.842,80.276    C20.799,80.301,20.753,80.313,20.708,80.313z"/>
    </g>
    <g>
      <path style='fill:#e52d27' d="M35.817,89.029c-0.092,0-0.182-0.048-0.232-0.134c-0.074-0.128-0.031-0.292,0.098-0.366l43.822-25.475    c0.127-0.074,0.291-0.032,0.366,0.098c0.074,0.127,0.031,0.292-0.098,0.366L35.952,88.993    C35.91,89.018,35.864,89.029,35.817,89.029z"/>
    </g>
    <g>
      <path style='fill:#e52d27' d="M70.5,58.94c-0.297,0-0.5-0.24-0.5-0.536V26.227c0-0.296,0.203-0.536,0.5-0.536c0.296,0,0.5,0.24,0.5,0.536v32.178    C71,58.7,70.796,58.94,70.5,58.94z"/>
    </g>
  </g>
</svg>
